<svg width="124" height="14" viewBox="0 0 124 14" fill="none" xmlns="http://www.w3.org/2000/svg">
<path d="M4.438 12.14C3.794 12.14 3.248 12.042 2.8 11.846C2.36133 11.6407 2.002 11.3607 1.722 11.006C1.442 10.6513 1.23667 10.2453 1.106 9.788C0.984667 9.33067 0.914667 8.84533 0.896 8.332C0.886667 8.08 0.877333 7.814 0.868 7.534C0.868 7.254 0.868 6.974 0.868 6.694C0.877333 6.40467 0.886667 6.12933 0.896 5.868C0.905333 5.35467 0.975333 4.86933 1.106 4.412C1.246 3.94533 1.45133 3.53933 1.722 3.194C2.002 2.83933 2.366 2.564 2.814 2.368C3.262 2.16267 3.80333 2.06 4.438 2.06C5.082 2.06 5.62333 2.16267 6.062 2.368C6.51 2.564 6.874 2.83933 7.154 3.194C7.434 3.53933 7.63933 3.94533 7.77 4.412C7.91 4.86933 7.98467 5.35467 7.994 5.868C8.00333 6.12933 8.008 6.40467 8.008 6.694C8.01733 6.974 8.01733 7.254 8.008 7.534C8.008 7.814 8.00333 8.08 7.994 8.332C7.98467 8.84533 7.91 9.33067 7.77 9.788C7.63933 10.2453 7.434 10.6513 7.154 11.006C6.88333 11.3607 6.524 11.6407 6.076 11.846C5.63733 12.042 5.09133 12.14 4.438 12.14ZM4.438 10.95C5.166 10.95 5.70267 10.712 6.048 10.236C6.40267 9.75067 6.58467 9.09267 6.594 8.262C6.61267 7.99133 6.622 7.73 6.622 7.478C6.622 7.21667 6.622 6.96 6.622 6.708C6.622 6.44667 6.61267 6.19 6.594 5.938C6.58467 5.126 6.40267 4.47733 6.048 3.992C5.70267 3.49733 5.166 3.25 4.438 3.25C3.71933 3.25 3.18267 3.49733 2.828 3.992C2.48267 4.47733 2.30067 5.126 2.282 5.938C2.282 6.19 2.27733 6.44667 2.268 6.708C2.268 6.96 2.268 7.21667 2.268 7.478C2.27733 7.73 2.282 7.99133 2.282 8.262C2.30067 9.09267 2.48733 9.75067 2.842 10.236C3.19667 10.712 3.72867 10.95 4.438 10.95ZM12.9747 12.14C12.2374 12.14 11.6121 12.014 11.0987 11.762C10.5947 11.5007 10.2074 11.1647 9.93672 10.754C9.67539 10.3433 9.53539 9.90933 9.51672 9.452C9.50739 9.368 9.53072 9.30267 9.58672 9.256C9.64272 9.20933 9.71272 9.186 9.79672 9.186H10.5527C10.6367 9.186 10.7114 9.20467 10.7767 9.242C10.8421 9.27933 10.8934 9.35867 10.9307 9.48C11.0241 9.82533 11.1734 10.11 11.3787 10.334C11.5934 10.5487 11.8361 10.7073 12.1067 10.81C12.3867 10.9033 12.6761 10.95 12.9747 10.95C13.3761 10.95 13.7401 10.8707 14.0667 10.712C14.4027 10.544 14.6687 10.3013 14.8647 9.984C15.0607 9.65733 15.1587 9.26533 15.1587 8.808C15.1587 8.388 15.0607 8.02867 14.8647 7.73C14.6781 7.422 14.4167 7.18867 14.0807 7.03C13.7541 6.862 13.3854 6.778 12.9747 6.778C12.6667 6.778 12.4147 6.81533 12.2187 6.89C12.0227 6.96467 11.8547 7.05333 11.7147 7.156C11.5841 7.25867 11.4627 7.34733 11.3507 7.422C11.2481 7.49667 11.1314 7.534 11.0007 7.534H10.2727C10.1887 7.534 10.1141 7.506 10.0487 7.45C9.98339 7.38467 9.95539 7.31 9.96472 7.226L10.4127 2.55C10.4221 2.438 10.4547 2.354 10.5107 2.298C10.5761 2.23267 10.6601 2.2 10.7627 2.2H15.6487C15.7421 2.2 15.8167 2.23267 15.8727 2.298C15.9381 2.354 15.9707 2.42867 15.9707 2.522V3.068C15.9707 3.17067 15.9381 3.25 15.8727 3.306C15.8167 3.362 15.7421 3.39 15.6487 3.39H11.6167L11.3507 6.148C11.4814 6.064 11.6914 5.966 11.9807 5.854C12.2701 5.73267 12.6667 5.672 13.1707 5.672C13.6281 5.672 14.0574 5.742 14.4587 5.882C14.8694 6.022 15.2334 6.22733 15.5507 6.498C15.8681 6.76867 16.1154 7.1 16.2927 7.492C16.4701 7.87467 16.5587 8.318 16.5587 8.822C16.5587 9.53133 16.4001 10.1333 16.0827 10.628C15.7747 11.1227 15.3501 11.5007 14.8087 11.762C14.2767 12.014 13.6654 12.14 12.9747 12.14ZM18.4872 7.1C18.3939 7.1 18.3146 7.072 18.2492 7.016C18.1932 6.95067 18.1652 6.87133 18.1652 6.778V5.798C18.1652 5.70467 18.1932 5.63 18.2492 5.574C18.3146 5.50867 18.3939 5.476 18.4872 5.476H19.4812C19.5839 5.476 19.6632 5.50867 19.7192 5.574C19.7846 5.63 19.8172 5.70467 19.8172 5.798V6.778C19.8172 6.87133 19.7846 6.95067 19.7192 7.016C19.6632 7.072 19.5839 7.1 19.4812 7.1H18.4872ZM18.4872 12C18.3939 12 18.3146 11.972 18.2492 11.916C18.1932 11.8507 18.1652 11.7713 18.1652 11.678V10.698C18.1652 10.6047 18.1932 10.53 18.2492 10.474C18.3146 10.4087 18.3939 10.376 18.4872 10.376H19.4812C19.5839 10.376 19.6632 10.4087 19.7192 10.474C19.7846 10.53 19.8172 10.6047 19.8172 10.698V11.678C19.8172 11.7713 19.7846 11.8507 19.7192 11.916C19.6632 11.972 19.5839 12 19.4812 12H18.4872ZM21.7893 12C21.6959 12 21.6166 11.972 21.5513 11.916C21.4953 11.8507 21.4673 11.7713 21.4673 11.678V11.23C21.4673 11.146 21.4906 11.0527 21.5373 10.95C21.5839 10.8473 21.6773 10.7353 21.8173 10.614L24.7853 7.646C25.2613 7.24467 25.6346 6.904 25.9053 6.624C26.1853 6.33467 26.3813 6.05933 26.4933 5.798C26.6146 5.53667 26.6753 5.266 26.6753 4.986C26.6753 4.454 26.5259 4.034 26.2273 3.726C25.9286 3.40867 25.4853 3.25 24.8972 3.25C24.5239 3.25 24.2019 3.32933 23.9313 3.488C23.6606 3.63733 23.4459 3.84733 23.2873 4.118C23.1379 4.37933 23.0399 4.678 22.9933 5.014C22.9746 5.13533 22.9233 5.21933 22.8392 5.266C22.7646 5.31267 22.6946 5.336 22.6292 5.336H21.9013C21.8173 5.336 21.7473 5.31267 21.6913 5.266C21.6353 5.21 21.6073 5.14467 21.6073 5.07C21.6166 4.71533 21.6913 4.36067 21.8313 4.006C21.9713 3.642 22.1766 3.31533 22.4473 3.026C22.7273 2.73667 23.0679 2.50333 23.4693 2.326C23.8799 2.13933 24.3559 2.046 24.8972 2.046C25.6346 2.046 26.2366 2.18133 26.7033 2.452C27.1793 2.71333 27.5293 3.06333 27.7533 3.502C27.9773 3.94067 28.0893 4.42133 28.0893 4.944C28.0893 5.35467 28.0193 5.73267 27.8793 6.078C27.7393 6.414 27.5339 6.74533 27.2633 7.072C27.0019 7.38933 26.6753 7.716 26.2833 8.052L23.5953 10.782H27.9633C28.0659 10.782 28.1453 10.81 28.2013 10.866C28.2666 10.922 28.2993 11.0013 28.2993 11.104V11.678C28.2993 11.7713 28.2666 11.8507 28.2013 11.916C28.1453 11.972 28.0659 12 27.9633 12H21.7893ZM33.45 12.14C32.9087 12.14 32.4094 12.0747 31.952 11.944C31.504 11.804 31.1167 11.608 30.79 11.356C30.4727 11.0947 30.2254 10.782 30.048 10.418C29.8707 10.054 29.782 9.64333 29.782 9.186C29.782 8.61667 29.9174 8.12667 30.188 7.716C30.468 7.30533 30.8367 6.99267 31.294 6.778C30.93 6.56333 30.6454 6.28333 30.44 5.938C30.2347 5.59267 30.132 5.182 30.132 4.706C30.132 4.146 30.2674 3.67467 30.538 3.292C30.818 2.9 31.2054 2.59667 31.7 2.382C32.204 2.16733 32.7874 2.06 33.45 2.06C34.1034 2.06 34.6774 2.16733 35.172 2.382C35.676 2.58733 36.0634 2.886 36.334 3.278C36.614 3.67 36.754 4.14133 36.754 4.692C36.754 5.168 36.6514 5.58333 36.446 5.938C36.2407 6.28333 35.9607 6.56333 35.606 6.778C36.0634 6.99267 36.4274 7.30533 36.698 7.716C36.978 8.12667 37.118 8.61667 37.118 9.186C37.118 9.79267 36.964 10.32 36.656 10.768C36.348 11.2067 35.9187 11.5473 35.368 11.79C34.8174 12.0233 34.178 12.14 33.45 12.14ZM33.45 11.02C33.8794 11.02 34.2667 10.9453 34.612 10.796C34.9574 10.6467 35.2327 10.4367 35.438 10.166C35.6434 9.886 35.746 9.55933 35.746 9.186C35.746 8.80333 35.6434 8.48133 35.438 8.22C35.2327 7.94933 34.9574 7.744 34.612 7.604C34.2667 7.45467 33.8794 7.38 33.45 7.38C33.0207 7.38 32.6287 7.45467 32.274 7.604C31.9287 7.744 31.6534 7.94933 31.448 8.22C31.2427 8.48133 31.14 8.80333 31.14 9.186C31.14 9.55933 31.2427 9.886 31.448 10.166C31.6534 10.4367 31.9287 10.6467 32.274 10.796C32.6287 10.9453 33.0207 11.02 33.45 11.02ZM33.45 6.274C33.8047 6.274 34.1314 6.20867 34.43 6.078C34.738 5.94733 34.9807 5.77 35.158 5.546C35.3447 5.322 35.438 5.05133 35.438 4.734C35.438 4.41667 35.3494 4.14133 35.172 3.908C35.004 3.67467 34.766 3.49733 34.458 3.376C34.1594 3.24533 33.8234 3.18 33.45 3.18C33.0767 3.18 32.736 3.24533 32.428 3.376C32.1294 3.49733 31.8914 3.67467 31.714 3.908C31.5367 4.14133 31.448 4.41667 31.448 4.734C31.448 5.06067 31.5367 5.34067 31.714 5.574C31.8914 5.798 32.1294 5.97067 32.428 6.092C32.736 6.21333 33.0767 6.274 33.45 6.274ZM41.9741 13.176C41.8994 13.176 41.8341 13.148 41.7781 13.092C41.7221 13.036 41.6941 12.9707 41.6941 12.896C41.6941 12.8493 41.7081 12.7933 41.7361 12.728L46.5241 1.248C46.5521 1.192 46.5894 1.136 46.6361 1.08C46.6921 1.024 46.7761 0.996 46.8881 0.996H47.4341C47.5087 0.996 47.5741 1.024 47.6301 1.08C47.6861 1.136 47.7141 1.20133 47.7141 1.276C47.7141 1.31333 47.7047 1.36933 47.6861 1.444L42.8841 12.924C42.8654 12.9707 42.8234 13.022 42.7581 13.078C42.7021 13.1433 42.6227 13.176 42.5201 13.176H41.9741ZM55.366 12C55.2726 12 55.1933 11.972 55.128 11.916C55.072 11.8507 55.044 11.7713 55.044 11.678V3.838L52.72 5.63C52.6453 5.686 52.566 5.70933 52.482 5.7C52.398 5.69067 52.328 5.64867 52.272 5.574L51.908 5.112C51.852 5.028 51.8286 4.944 51.838 4.86C51.8566 4.776 51.9033 4.706 51.978 4.65L55.03 2.298C55.0953 2.25133 55.156 2.22333 55.212 2.214C55.268 2.20467 55.3286 2.2 55.394 2.2H56.108C56.2013 2.2 56.276 2.23267 56.332 2.298C56.388 2.354 56.416 2.42867 56.416 2.522V11.678C56.416 11.7713 56.388 11.8507 56.332 11.916C56.276 11.972 56.2013 12 56.108 12H55.366ZM61.8022 12.14C61.0276 12.14 60.3696 11.986 59.8282 11.678C59.2869 11.3607 58.8716 10.95 58.5822 10.446C58.3022 9.93267 58.1622 9.37733 58.1622 8.78C58.1622 8.5 58.1949 8.234 58.2602 7.982C58.3349 7.72067 58.4236 7.478 58.5262 7.254C58.6382 7.02067 58.7456 6.81533 58.8482 6.638C58.9602 6.45133 59.0582 6.302 59.1422 6.19L61.8022 2.48C61.8489 2.43333 61.9049 2.37733 61.9702 2.312C62.0356 2.23733 62.1336 2.2 62.2642 2.2H63.0062C63.0902 2.2 63.1556 2.23267 63.2022 2.298C63.2582 2.354 63.2862 2.424 63.2862 2.508C63.2862 2.54533 63.2816 2.58267 63.2722 2.62C63.2629 2.648 63.2489 2.67133 63.2302 2.69L61.1862 5.546C61.2982 5.50867 61.4242 5.48533 61.5642 5.476C61.7136 5.45733 61.8536 5.448 61.9842 5.448C62.4976 5.45733 62.9642 5.55067 63.3842 5.728C63.8042 5.90533 64.1636 6.148 64.4622 6.456C64.7702 6.75467 65.0036 7.10467 65.1622 7.506C65.3209 7.898 65.4002 8.318 65.4002 8.766C65.4002 9.354 65.2602 9.90467 64.9802 10.418C64.7002 10.9313 64.2896 11.3467 63.7482 11.664C63.2162 11.9813 62.5676 12.14 61.8022 12.14ZM61.7882 10.95C62.1802 10.95 62.5442 10.866 62.8802 10.698C63.2162 10.53 63.4869 10.2873 63.6922 9.97C63.9069 9.64333 64.0142 9.24667 64.0142 8.78C64.0142 8.304 63.9116 7.90733 63.7062 7.59C63.5009 7.26333 63.2256 7.02067 62.8802 6.862C62.5442 6.694 62.1802 6.61 61.7882 6.61C61.3962 6.61 61.0322 6.694 60.6962 6.862C60.3602 7.02067 60.0849 7.26333 59.8702 7.59C59.6649 7.90733 59.5622 8.304 59.5622 8.78C59.5622 9.24667 59.6649 9.64333 59.8702 9.97C60.0849 10.2873 60.3602 10.53 60.6962 10.698C61.0322 10.866 61.3962 10.95 61.7882 10.95ZM67.1858 12C67.0924 12 67.0131 11.972 66.9478 11.916C66.8918 11.8507 66.8638 11.7713 66.8638 11.678V10.67C66.8638 10.5767 66.8918 10.502 66.9478 10.446C67.0131 10.3807 67.0924 10.348 67.1858 10.348H68.1938C68.2871 10.348 68.3618 10.3807 68.4178 10.446C68.4831 10.502 68.5158 10.5767 68.5158 10.67V11.678C68.5158 11.7713 68.4831 11.8507 68.4178 11.916C68.3618 11.972 68.2871 12 68.1938 12H67.1858ZM73.686 12.14C73.042 12.14 72.496 12.042 72.048 11.846C71.6094 11.6407 71.25 11.3607 70.97 11.006C70.69 10.6513 70.4847 10.2453 70.354 9.788C70.2327 9.33067 70.1627 8.84533 70.144 8.332C70.1347 8.08 70.1254 7.814 70.116 7.534C70.116 7.254 70.116 6.974 70.116 6.694C70.1254 6.40467 70.1347 6.12933 70.144 5.868C70.1534 5.35467 70.2234 4.86933 70.354 4.412C70.494 3.94533 70.6994 3.53933 70.97 3.194C71.25 2.83933 71.614 2.564 72.062 2.368C72.51 2.16267 73.0514 2.06 73.686 2.06C74.33 2.06 74.8714 2.16267 75.31 2.368C75.758 2.564 76.122 2.83933 76.402 3.194C76.682 3.53933 76.8874 3.94533 77.018 4.412C77.158 4.86933 77.2327 5.35467 77.242 5.868C77.2514 6.12933 77.256 6.40467 77.256 6.694C77.2654 6.974 77.2654 7.254 77.256 7.534C77.256 7.814 77.2514 8.08 77.242 8.332C77.2327 8.84533 77.158 9.33067 77.018 9.788C76.8874 10.2453 76.682 10.6513 76.402 11.006C76.1314 11.3607 75.772 11.6407 75.324 11.846C74.8854 12.042 74.3394 12.14 73.686 12.14ZM73.686 10.95C74.414 10.95 74.9507 10.712 75.296 10.236C75.6507 9.75067 75.8327 9.09267 75.842 8.262C75.8607 7.99133 75.87 7.73 75.87 7.478C75.87 7.21667 75.87 6.96 75.87 6.708C75.87 6.44667 75.8607 6.19 75.842 5.938C75.8327 5.126 75.6507 4.47733 75.296 3.992C74.9507 3.49733 74.414 3.25 73.686 3.25C72.9674 3.25 72.4307 3.49733 72.076 3.992C71.7307 4.47733 71.5487 5.126 71.53 5.938C71.53 6.19 71.5254 6.44667 71.516 6.708C71.516 6.96 71.516 7.21667 71.516 7.478C71.5254 7.73 71.53 7.99133 71.53 8.262C71.5487 9.09267 71.7354 9.75067 72.09 10.236C72.4447 10.712 72.9767 10.95 73.686 10.95ZM82.2228 12.14C81.4854 12.14 80.8601 12.014 80.3468 11.762C79.8428 11.5007 79.4554 11.1647 79.1848 10.754C78.9234 10.3433 78.7834 9.90933 78.7648 9.452C78.7554 9.368 78.7788 9.30267 78.8348 9.256C78.8908 9.20933 78.9608 9.186 79.0448 9.186H79.8008C79.8848 9.186 79.9594 9.20467 80.0248 9.242C80.0901 9.27933 80.1414 9.35867 80.1788 9.48C80.2721 9.82533 80.4214 10.11 80.6268 10.334C80.8414 10.5487 81.0841 10.7073 81.3548 10.81C81.6348 10.9033 81.9241 10.95 82.2228 10.95C82.6241 10.95 82.9881 10.8707 83.3148 10.712C83.6508 10.544 83.9168 10.3013 84.1128 9.984C84.3088 9.65733 84.4068 9.26533 84.4068 8.808C84.4068 8.388 84.3088 8.02867 84.1128 7.73C83.9261 7.422 83.6648 7.18867 83.3288 7.03C83.0021 6.862 82.6334 6.778 82.2228 6.778C81.9148 6.778 81.6628 6.81533 81.4668 6.89C81.2708 6.96467 81.1028 7.05333 80.9628 7.156C80.8321 7.25867 80.7108 7.34733 80.5988 7.422C80.4961 7.49667 80.3794 7.534 80.2488 7.534H79.5208C79.4368 7.534 79.3621 7.506 79.2968 7.45C79.2314 7.38467 79.2034 7.31 79.2128 7.226L79.6608 2.55C79.6701 2.438 79.7028 2.354 79.7588 2.298C79.8241 2.23267 79.9081 2.2 80.0108 2.2H84.8968C84.9901 2.2 85.0648 2.23267 85.1208 2.298C85.1861 2.354 85.2188 2.42867 85.2188 2.522V3.068C85.2188 3.17067 85.1861 3.25 85.1208 3.306C85.0648 3.362 84.9901 3.39 84.8968 3.39H80.8648L80.5988 6.148C80.7294 6.064 80.9394 5.966 81.2288 5.854C81.5181 5.73267 81.9148 5.672 82.4188 5.672C82.8761 5.672 83.3054 5.742 83.7068 5.882C84.1174 6.022 84.4814 6.22733 84.7988 6.498C85.1161 6.76867 85.3634 7.1 85.5408 7.492C85.7181 7.87467 85.8068 8.318 85.8068 8.822C85.8068 9.53133 85.6481 10.1333 85.3308 10.628C85.0228 11.1227 84.5981 11.5007 84.0568 11.762C83.5248 12.014 82.9134 12.14 82.2228 12.14ZM87.5842 12C87.4909 12 87.4116 11.972 87.3462 11.916C87.2902 11.8507 87.2622 11.7713 87.2622 11.678V10.67C87.2622 10.5767 87.2902 10.502 87.3462 10.446C87.4116 10.3807 87.4909 10.348 87.5842 10.348H88.5922C88.6856 10.348 88.7602 10.3807 88.8162 10.446C88.8816 10.502 88.9142 10.5767 88.9142 10.67V11.678C88.9142 11.7713 88.8816 11.8507 88.8162 11.916C88.7602 11.972 88.6856 12 88.5922 12H87.5842ZM90.8596 12C90.7662 12 90.6869 11.972 90.6216 11.916C90.5656 11.8507 90.5376 11.7713 90.5376 11.678V11.23C90.5376 11.146 90.5609 11.0527 90.6076 10.95C90.6542 10.8473 90.7476 10.7353 90.8876 10.614L93.8556 7.646C94.3316 7.24467 94.7049 6.904 94.9756 6.624C95.2556 6.33467 95.4516 6.05933 95.5636 5.798C95.6849 5.53667 95.7456 5.266 95.7456 4.986C95.7456 4.454 95.5962 4.034 95.2976 3.726C94.9989 3.40867 94.5556 3.25 93.9676 3.25C93.5942 3.25 93.2722 3.32933 93.0016 3.488C92.7309 3.63733 92.5162 3.84733 92.3576 4.118C92.2082 4.37933 92.1102 4.678 92.0636 5.014C92.0449 5.13533 91.9936 5.21933 91.9096 5.266C91.8349 5.31267 91.7649 5.336 91.6996 5.336H90.9716C90.8876 5.336 90.8176 5.31267 90.7616 5.266C90.7056 5.21 90.6776 5.14467 90.6776 5.07C90.6869 4.71533 90.7616 4.36067 90.9016 4.006C91.0416 3.642 91.2469 3.31533 91.5176 3.026C91.7976 2.73667 92.1382 2.50333 92.5396 2.326C92.9502 2.13933 93.4262 2.046 93.9676 2.046C94.7049 2.046 95.3069 2.18133 95.7736 2.452C96.2496 2.71333 96.5996 3.06333 96.8236 3.502C97.0476 3.94067 97.1596 4.42133 97.1596 4.944C97.1596 5.35467 97.0896 5.73267 96.9496 6.078C96.8096 6.414 96.6042 6.74533 96.3336 7.072C96.0722 7.38933 95.7456 7.716 95.3536 8.052L92.6656 10.782H97.0336C97.1362 10.782 97.2156 10.81 97.2716 10.866C97.3369 10.922 97.3696 11.0013 97.3696 11.104V11.678C97.3696 11.7713 97.3369 11.8507 97.2716 11.916C97.2156 11.972 97.1362 12 97.0336 12H90.8596ZM102.506 12.14C101.862 12.14 101.316 12.042 100.868 11.846C100.43 11.6407 100.07 11.3607 99.7904 11.006C99.5104 10.6513 99.305 10.2453 99.1744 9.788C99.053 9.33067 98.983 8.84533 98.9644 8.332C98.955 8.08 98.9457 7.814 98.9364 7.534C98.9364 7.254 98.9364 6.974 98.9364 6.694C98.9457 6.40467 98.955 6.12933 98.9644 5.868C98.9737 5.35467 99.0437 4.86933 99.1744 4.412C99.3144 3.94533 99.5197 3.53933 99.7904 3.194C100.07 2.83933 100.434 2.564 100.882 2.368C101.33 2.16267 101.872 2.06 102.506 2.06C103.15 2.06 103.692 2.16267 104.13 2.368C104.578 2.564 104.942 2.83933 105.222 3.194C105.502 3.53933 105.708 3.94533 105.838 4.412C105.978 4.86933 106.053 5.35467 106.062 5.868C106.072 6.12933 106.076 6.40467 106.076 6.694C106.086 6.974 106.086 7.254 106.076 7.534C106.076 7.814 106.072 8.08 106.062 8.332C106.053 8.84533 105.978 9.33067 105.838 9.788C105.708 10.2453 105.502 10.6513 105.222 11.006C104.952 11.3607 104.592 11.6407 104.144 11.846C103.706 12.042 103.16 12.14 102.506 12.14ZM102.506 10.95C103.234 10.95 103.771 10.712 104.116 10.236C104.471 9.75067 104.653 9.09267 104.662 8.262C104.681 7.99133 104.69 7.73 104.69 7.478C104.69 7.21667 104.69 6.96 104.69 6.708C104.69 6.44667 104.681 6.19 104.662 5.938C104.653 5.126 104.471 4.47733 104.116 3.992C103.771 3.49733 103.234 3.25 102.506 3.25C101.788 3.25 101.251 3.49733 100.896 3.992C100.551 4.47733 100.369 5.126 100.35 5.938C100.35 6.19 100.346 6.44667 100.336 6.708C100.336 6.96 100.336 7.21667 100.336 7.478C100.346 7.73 100.35 7.99133 100.35 8.262C100.369 9.09267 100.556 9.75067 100.91 10.236C101.265 10.712 101.797 10.95 102.506 10.95ZM107.963 12C107.87 12 107.79 11.972 107.725 11.916C107.669 11.8507 107.641 11.7713 107.641 11.678V11.23C107.641 11.146 107.664 11.0527 107.711 10.95C107.758 10.8473 107.851 10.7353 107.991 10.614L110.959 7.646C111.435 7.24467 111.808 6.904 112.079 6.624C112.359 6.33467 112.555 6.05933 112.667 5.798C112.788 5.53667 112.849 5.266 112.849 4.986C112.849 4.454 112.7 4.034 112.401 3.726C112.102 3.40867 111.659 3.25 111.071 3.25C110.698 3.25 110.376 3.32933 110.105 3.488C109.834 3.63733 109.62 3.84733 109.461 4.118C109.312 4.37933 109.214 4.678 109.167 5.014C109.148 5.13533 109.097 5.21933 109.013 5.266C108.938 5.31267 108.868 5.336 108.803 5.336H108.075C107.991 5.336 107.921 5.31267 107.865 5.266C107.809 5.21 107.781 5.14467 107.781 5.07C107.79 4.71533 107.865 4.36067 108.005 4.006C108.145 3.642 108.35 3.31533 108.621 3.026C108.901 2.73667 109.242 2.50333 109.643 2.326C110.054 2.13933 110.53 2.046 111.071 2.046C111.808 2.046 112.41 2.18133 112.877 2.452C113.353 2.71333 113.703 3.06333 113.927 3.502C114.151 3.94067 114.263 4.42133 114.263 4.944C114.263 5.35467 114.193 5.73267 114.053 6.078C113.913 6.414 113.708 6.74533 113.437 7.072C113.176 7.38933 112.849 7.716 112.457 8.052L109.769 10.782H114.137C114.24 10.782 114.319 10.81 114.375 10.866C114.44 10.922 114.473 11.0013 114.473 11.104V11.678C114.473 11.7713 114.44 11.8507 114.375 11.916C114.319 11.972 114.24 12 114.137 12H107.963ZM119.61 12.14C118.966 12.14 118.42 12.042 117.972 11.846C117.533 11.6407 117.174 11.3607 116.894 11.006C116.614 10.6513 116.409 10.2453 116.278 9.788C116.157 9.33067 116.087 8.84533 116.068 8.332C116.059 8.08 116.049 7.814 116.04 7.534C116.04 7.254 116.04 6.974 116.04 6.694C116.049 6.40467 116.059 6.12933 116.068 5.868C116.077 5.35467 116.147 4.86933 116.278 4.412C116.418 3.94533 116.623 3.53933 116.894 3.194C117.174 2.83933 117.538 2.564 117.986 2.368C118.434 2.16267 118.975 2.06 119.61 2.06C120.254 2.06 120.795 2.16267 121.234 2.368C121.682 2.564 122.046 2.83933 122.326 3.194C122.606 3.53933 122.811 3.94533 122.942 4.412C123.082 4.86933 123.157 5.35467 123.166 5.868C123.175 6.12933 123.18 6.40467 123.18 6.694C123.189 6.974 123.189 7.254 123.18 7.534C123.18 7.814 123.175 8.08 123.166 8.332C123.157 8.84533 123.082 9.33067 122.942 9.788C122.811 10.2453 122.606 10.6513 122.326 11.006C122.055 11.3607 121.696 11.6407 121.248 11.846C120.809 12.042 120.263 12.14 119.61 12.14ZM119.61 10.95C120.338 10.95 120.875 10.712 121.22 10.236C121.575 9.75067 121.757 9.09267 121.766 8.262C121.785 7.99133 121.794 7.73 121.794 7.478C121.794 7.21667 121.794 6.96 121.794 6.708C121.794 6.44667 121.785 6.19 121.766 5.938C121.757 5.126 121.575 4.47733 121.22 3.992C120.875 3.49733 120.338 3.25 119.61 3.25C118.891 3.25 118.355 3.49733 118 3.992C117.655 4.47733 117.473 5.126 117.454 5.938C117.454 6.19 117.449 6.44667 117.44 6.708C117.44 6.96 117.44 7.21667 117.44 7.478C117.449 7.73 117.454 7.99133 117.454 8.262C117.473 9.09267 117.659 9.75067 118.014 10.236C118.369 10.712 118.901 10.95 119.61 10.95Z" fill="#6B6D97"/>
</svg>
