<svg width="124" height="14" viewBox="0 0 124 14" fill="none" xmlns="http://www.w3.org/2000/svg">
<path d="M4.438 12.14C3.234 12.14 2.352 11.79 1.792 11.09C1.232 10.39 0.933333 9.47067 0.896 8.332C0.886667 8.08 0.882 7.674 0.882 7.114C0.882 6.53533 0.886667 6.11533 0.896 5.854C0.924 4.734 1.22267 3.824 1.792 3.124C2.36133 2.41467 3.24333 2.06 4.438 2.06C5.642 2.06 6.52867 2.41467 7.098 3.124C7.66733 3.824 7.966 4.734 7.994 5.854C8.01267 6.37667 8.022 6.79667 8.022 7.114C8.022 7.422 8.01267 7.828 7.994 8.332C7.95667 9.47067 7.658 10.39 7.098 11.09C6.538 11.79 5.65133 12.14 4.438 12.14ZM4.438 10.936C5.138 10.936 5.66533 10.7027 6.02 10.236C6.384 9.76933 6.57533 9.11133 6.594 8.262C6.61267 7.72067 6.622 7.32867 6.622 7.086C6.622 6.82467 6.61267 6.442 6.594 5.938C6.57533 5.098 6.38867 4.44 6.034 3.964C5.67933 3.488 5.14733 3.25 4.438 3.25C3.738 3.25 3.206 3.488 2.842 3.964C2.48733 4.44 2.30067 5.098 2.282 5.938L2.268 7.086L2.282 8.262C2.30067 9.11133 2.48733 9.76933 2.842 10.236C3.206 10.7027 3.738 10.936 4.438 10.936ZM12.9747 12.14C12.2654 12.14 11.6541 12.014 11.1407 11.762C10.6274 11.51 10.2307 11.1787 9.95072 10.768C9.68005 10.3573 9.53539 9.91867 9.51672 9.452V9.424C9.51672 9.34933 9.54472 9.28867 9.60072 9.242C9.65672 9.19533 9.72205 9.172 9.79672 9.172H10.5527C10.7487 9.172 10.8747 9.27467 10.9307 9.48C11.0614 9.97467 11.3134 10.3433 11.6867 10.586C12.0601 10.8287 12.4894 10.95 12.9747 10.95C13.6001 10.95 14.1181 10.7633 14.5287 10.39C14.9487 10.0073 15.1587 9.48 15.1587 8.808C15.1587 8.20133 14.9487 7.71133 14.5287 7.338C14.1181 6.96467 13.6001 6.778 12.9747 6.778C12.6387 6.778 12.3681 6.82467 12.1627 6.918C11.9574 7.002 11.7521 7.12333 11.5467 7.282C11.4347 7.366 11.3367 7.43133 11.2527 7.478C11.1781 7.51533 11.0941 7.534 11.0007 7.534H10.2727C10.1887 7.534 10.1141 7.506 10.0487 7.45C9.98339 7.38467 9.95539 7.31 9.96472 7.226L10.4127 2.55C10.4221 2.438 10.4547 2.354 10.5107 2.298C10.5761 2.23267 10.6601 2.2 10.7627 2.2H15.6487C15.7421 2.2 15.8167 2.23267 15.8727 2.298C15.9381 2.354 15.9707 2.42867 15.9707 2.522V3.068C15.9707 3.16133 15.9381 3.24067 15.8727 3.306C15.8167 3.362 15.7421 3.39 15.6487 3.39H11.6167L11.3507 6.148C11.8547 5.83067 12.4614 5.672 13.1707 5.672C13.7867 5.672 14.3514 5.798 14.8647 6.05C15.3874 6.302 15.7981 6.666 16.0967 7.142C16.4047 7.618 16.5587 8.178 16.5587 8.822C16.5587 9.51267 16.4047 10.11 16.0967 10.614C15.7981 11.1087 15.3781 11.4867 14.8367 11.748C14.2954 12.0093 13.6747 12.14 12.9747 12.14ZM18.4872 7.1C18.3939 7.1 18.3146 7.072 18.2492 7.016C18.1932 6.95067 18.1652 6.87133 18.1652 6.778V5.798C18.1652 5.70467 18.1932 5.63 18.2492 5.574C18.3146 5.50867 18.3939 5.476 18.4872 5.476H19.4952C19.5886 5.476 19.6632 5.50867 19.7192 5.574C19.7846 5.63 19.8172 5.70467 19.8172 5.798V6.778C19.8172 6.87133 19.7846 6.95067 19.7192 7.016C19.6632 7.072 19.5886 7.1 19.4952 7.1H18.4872ZM18.4872 12C18.3939 12 18.3146 11.972 18.2492 11.916C18.1932 11.8507 18.1652 11.7713 18.1652 11.678V10.698C18.1652 10.6047 18.1932 10.53 18.2492 10.474C18.3146 10.4087 18.3939 10.376 18.4872 10.376H19.4952C19.5886 10.376 19.6632 10.4087 19.7192 10.474C19.7846 10.53 19.8172 10.6047 19.8172 10.698V11.678C19.8172 11.7713 19.7846 11.8507 19.7192 11.916C19.6632 11.972 19.5886 12 19.4952 12H18.4872ZM21.7893 12C21.6959 12 21.6166 11.972 21.5513 11.916C21.4953 11.8507 21.4673 11.7713 21.4673 11.678V11.23C21.4673 11.0153 21.5839 10.81 21.8173 10.614L24.7853 7.646C25.5039 7.04867 25.9986 6.56333 26.2693 6.19C26.5399 5.80733 26.6753 5.406 26.6753 4.986C26.6753 4.44467 26.5213 4.02 26.2133 3.712C25.9146 3.404 25.4759 3.25 24.8972 3.25C24.3559 3.25 23.9219 3.41333 23.5953 3.74C23.2686 4.05733 23.0679 4.482 22.9933 5.014C22.9746 5.126 22.9279 5.21 22.8533 5.266C22.7879 5.31267 22.7133 5.336 22.6292 5.336H21.9013C21.8173 5.336 21.7473 5.31267 21.6913 5.266C21.6353 5.21 21.6073 5.14467 21.6073 5.07C21.6259 4.566 21.7613 4.08533 22.0133 3.628C22.2653 3.16133 22.6339 2.78333 23.1193 2.494C23.6139 2.19533 24.2066 2.046 24.8972 2.046C25.9519 2.046 26.7453 2.32133 27.2773 2.872C27.8186 3.41333 28.0893 4.104 28.0893 4.944C28.0893 5.532 27.9399 6.064 27.6413 6.54C27.3519 7.00667 26.8993 7.51067 26.2833 8.052L23.5953 10.782H27.9633C28.0659 10.782 28.1453 10.8147 28.2013 10.88C28.2666 10.936 28.2993 11.0107 28.2993 11.104V11.678C28.2993 11.7713 28.2666 11.8507 28.2013 11.916C28.1359 11.972 28.0566 12 27.9633 12H21.7893ZM33.45 12.14C32.722 12.14 32.0827 12.0233 31.532 11.79C30.9814 11.5473 30.552 11.202 30.244 10.754C29.936 10.306 29.782 9.78333 29.782 9.186C29.782 8.63533 29.9174 8.15467 30.188 7.744C30.4587 7.324 30.8274 7.002 31.294 6.778C30.9207 6.56333 30.6314 6.28333 30.426 5.938C30.23 5.58333 30.132 5.17267 30.132 4.706C30.132 3.88467 30.4307 3.24067 31.028 2.774C31.6347 2.298 32.442 2.06 33.45 2.06C34.4487 2.06 35.2467 2.298 35.844 2.774C36.4507 3.24067 36.754 3.88 36.754 4.692C36.754 5.15867 36.6514 5.56933 36.446 5.924C36.25 6.26933 35.97 6.554 35.606 6.778C36.0727 7.002 36.4414 7.324 36.712 7.744C36.9827 8.15467 37.118 8.63533 37.118 9.186C37.118 9.78333 36.964 10.306 36.656 10.754C36.348 11.202 35.914 11.5473 35.354 11.79C34.8034 12.0233 34.1687 12.14 33.45 12.14ZM33.45 6.274C34.01 6.26467 34.4814 6.12 34.864 5.84C35.2467 5.56 35.438 5.19133 35.438 4.734C35.438 4.26733 35.2467 3.894 34.864 3.614C34.4907 3.32467 34.0194 3.18 33.45 3.18C32.8714 3.18 32.3907 3.32 32.008 3.6C31.6347 3.88 31.448 4.258 31.448 4.734C31.448 5.20067 31.6347 5.574 32.008 5.854C32.3907 6.134 32.8714 6.274 33.45 6.274ZM33.45 11.02C34.1034 11.02 34.6494 10.852 35.088 10.516C35.5267 10.18 35.746 9.73667 35.746 9.186C35.746 8.63533 35.5267 8.19667 35.088 7.87C34.6494 7.54333 34.1034 7.38 33.45 7.38C32.7874 7.38 32.2367 7.54333 31.798 7.87C31.3594 8.19667 31.14 8.63533 31.14 9.186C31.14 9.73667 31.3594 10.18 31.798 10.516C32.2367 10.852 32.7874 11.02 33.45 11.02ZM41.9741 13.176C41.8994 13.176 41.8341 13.148 41.7781 13.092C41.7221 13.036 41.6941 12.9707 41.6941 12.896C41.6941 12.8587 41.7081 12.8027 41.7361 12.728L46.5241 1.248C46.5987 1.08 46.7201 0.996 46.8881 0.996H47.4341C47.5087 0.996 47.5741 1.024 47.6301 1.08C47.6861 1.136 47.7141 1.20133 47.7141 1.276C47.7141 1.34133 47.7047 1.39733 47.6861 1.444L42.8841 12.924C42.8094 13.092 42.6881 13.176 42.5201 13.176H41.9741ZM55.3796 12C55.2863 12 55.207 11.972 55.1416 11.916C55.0856 11.8507 55.0576 11.7713 55.0576 11.678V3.838L52.7336 5.63C52.6683 5.686 52.5983 5.714 52.5236 5.714C52.4396 5.714 52.3603 5.66733 52.2856 5.574L51.9216 5.112C51.875 5.04667 51.8516 4.98133 51.8516 4.916C51.8516 4.804 51.8983 4.71533 51.9916 4.65L55.0436 2.298C55.1463 2.23267 55.2676 2.2 55.4076 2.2H56.1216C56.215 2.2 56.2896 2.23267 56.3456 2.298C56.411 2.354 56.4436 2.42867 56.4436 2.522V11.678C56.4436 11.7713 56.411 11.8507 56.3456 11.916C56.2896 11.972 56.215 12 56.1216 12H55.3796ZM61.8159 12.14C61.0692 12.14 60.4206 11.9907 59.8699 11.692C59.3192 11.384 58.8992 10.9733 58.6099 10.46C58.3206 9.94667 58.1759 9.38667 58.1759 8.78C58.1759 8.28533 58.2739 7.81867 58.4699 7.38C58.6752 6.932 58.9039 6.53533 59.1559 6.19L61.8159 2.48C61.8252 2.47067 61.8532 2.438 61.8999 2.382C61.9372 2.326 61.9886 2.284 62.0539 2.256C62.1192 2.21867 62.1939 2.2 62.2779 2.2H63.0199C63.1039 2.2 63.1692 2.23267 63.2159 2.298C63.2719 2.354 63.2999 2.424 63.2999 2.508C63.2999 2.57333 63.2812 2.634 63.2439 2.69L61.1999 5.546C61.4052 5.48067 61.6712 5.448 61.9979 5.448C62.6699 5.45733 63.2626 5.61133 63.7759 5.91C64.2986 6.20867 64.6999 6.61 64.9799 7.114C65.2692 7.618 65.4139 8.16867 65.4139 8.766C65.4139 9.36333 65.2692 9.92333 64.9799 10.446C64.6999 10.9593 64.2846 11.37 63.7339 11.678C63.1926 11.986 62.5532 12.14 61.8159 12.14ZM61.8019 10.95C62.2032 10.95 62.5719 10.866 62.9079 10.698C63.2532 10.53 63.5239 10.2827 63.7199 9.956C63.9252 9.62 64.0279 9.22333 64.0279 8.766C64.0279 8.318 63.9252 7.93067 63.7199 7.604C63.5239 7.27733 63.2532 7.03 62.9079 6.862C62.5719 6.694 62.2032 6.61 61.8019 6.61C61.4099 6.61 61.0412 6.694 60.6959 6.862C60.3599 7.03 60.0892 7.27733 59.8839 7.604C59.6786 7.93067 59.5759 8.318 59.5759 8.766C59.5759 9.22333 59.6786 9.62 59.8839 9.956C60.0892 10.2827 60.3599 10.53 60.6959 10.698C61.0319 10.866 61.4006 10.95 61.8019 10.95ZM67.1995 12C67.1061 12 67.0268 11.972 66.9615 11.916C66.9055 11.8507 66.8775 11.7713 66.8775 11.678V10.67C66.8775 10.5767 66.9055 10.502 66.9615 10.446C67.0268 10.3807 67.1061 10.348 67.1995 10.348H68.2075C68.3008 10.348 68.3801 10.3807 68.4455 10.446C68.5108 10.502 68.5435 10.5767 68.5435 10.67V11.678C68.5435 11.7713 68.5108 11.8507 68.4455 11.916C68.3801 11.972 68.3008 12 68.2075 12H67.1995ZM73.6997 12.14C72.4957 12.14 71.6137 11.79 71.0537 11.09C70.4937 10.39 70.1951 9.47067 70.1577 8.332C70.1484 8.08 70.1437 7.674 70.1437 7.114C70.1437 6.53533 70.1484 6.11533 70.1577 5.854C70.1857 4.734 70.4844 3.824 71.0537 3.124C71.6231 2.41467 72.5051 2.06 73.6997 2.06C74.9037 2.06 75.7904 2.41467 76.3597 3.124C76.9291 3.824 77.2277 4.734 77.2557 5.854C77.2744 6.37667 77.2837 6.79667 77.2837 7.114C77.2837 7.422 77.2744 7.828 77.2557 8.332C77.2184 9.47067 76.9197 10.39 76.3597 11.09C75.7997 11.79 74.9131 12.14 73.6997 12.14ZM73.6997 10.936C74.3997 10.936 74.9271 10.7027 75.2817 10.236C75.6457 9.76933 75.8371 9.11133 75.8557 8.262C75.8744 7.72067 75.8837 7.32867 75.8837 7.086C75.8837 6.82467 75.8744 6.442 75.8557 5.938C75.8371 5.098 75.6504 4.44 75.2957 3.964C74.9411 3.488 74.4091 3.25 73.6997 3.25C72.9997 3.25 72.4677 3.488 72.1037 3.964C71.7491 4.44 71.5624 5.098 71.5437 5.938L71.5297 7.086L71.5437 8.262C71.5624 9.11133 71.7491 9.76933 72.1037 10.236C72.4677 10.7027 72.9997 10.936 73.6997 10.936ZM82.2364 12.14C81.5271 12.14 80.9158 12.014 80.4024 11.762C79.8891 11.51 79.4924 11.1787 79.2124 10.768C78.9418 10.3573 78.7971 9.91867 78.7784 9.452V9.424C78.7784 9.34933 78.8064 9.28867 78.8624 9.242C78.9184 9.19533 78.9838 9.172 79.0584 9.172H79.8144C80.0104 9.172 80.1364 9.27467 80.1924 9.48C80.3231 9.97467 80.5751 10.3433 80.9484 10.586C81.3218 10.8287 81.7511 10.95 82.2364 10.95C82.8618 10.95 83.3798 10.7633 83.7904 10.39C84.2104 10.0073 84.4204 9.48 84.4204 8.808C84.4204 8.20133 84.2104 7.71133 83.7904 7.338C83.3798 6.96467 82.8618 6.778 82.2364 6.778C81.9004 6.778 81.6298 6.82467 81.4244 6.918C81.2191 7.002 81.0138 7.12333 80.8084 7.282C80.6964 7.366 80.5984 7.43133 80.5144 7.478C80.4398 7.51533 80.3558 7.534 80.2624 7.534H79.5344C79.4504 7.534 79.3758 7.506 79.3104 7.45C79.2451 7.38467 79.2171 7.31 79.2264 7.226L79.6744 2.55C79.6838 2.438 79.7164 2.354 79.7724 2.298C79.8378 2.23267 79.9218 2.2 80.0244 2.2H84.9104C85.0038 2.2 85.0784 2.23267 85.1344 2.298C85.1998 2.354 85.2324 2.42867 85.2324 2.522V3.068C85.2324 3.16133 85.1998 3.24067 85.1344 3.306C85.0784 3.362 85.0038 3.39 84.9104 3.39H80.8784L80.6124 6.148C81.1164 5.83067 81.7231 5.672 82.4324 5.672C83.0484 5.672 83.6131 5.798 84.1264 6.05C84.6491 6.302 85.0598 6.666 85.3584 7.142C85.6664 7.618 85.8204 8.178 85.8204 8.822C85.8204 9.51267 85.6664 10.11 85.3584 10.614C85.0598 11.1087 84.6398 11.4867 84.0984 11.748C83.5571 12.0093 82.9364 12.14 82.2364 12.14ZM87.5979 12C87.5046 12 87.4252 11.972 87.3599 11.916C87.3039 11.8507 87.2759 11.7713 87.2759 11.678V10.67C87.2759 10.5767 87.3039 10.502 87.3599 10.446C87.4252 10.3807 87.5046 10.348 87.5979 10.348H88.6059C88.6992 10.348 88.7786 10.3807 88.8439 10.446C88.9092 10.502 88.9419 10.5767 88.9419 10.67V11.678C88.9419 11.7713 88.9092 11.8507 88.8439 11.916C88.7786 11.972 88.6992 12 88.6059 12H87.5979ZM90.8732 12C90.7799 12 90.7006 11.972 90.6352 11.916C90.5792 11.8507 90.5512 11.7713 90.5512 11.678V11.23C90.5512 11.0153 90.6679 10.81 90.9012 10.614L93.8692 7.646C94.5879 7.04867 95.0826 6.56333 95.3532 6.19C95.6239 5.80733 95.7592 5.406 95.7592 4.986C95.7592 4.44467 95.6052 4.02 95.2972 3.712C94.9986 3.404 94.5599 3.25 93.9812 3.25C93.4399 3.25 93.0059 3.41333 92.6792 3.74C92.3526 4.05733 92.1519 4.482 92.0772 5.014C92.0586 5.126 92.0119 5.21 91.9372 5.266C91.8719 5.31267 91.7972 5.336 91.7132 5.336H90.9852C90.9012 5.336 90.8312 5.31267 90.7752 5.266C90.7192 5.21 90.6912 5.14467 90.6912 5.07C90.7099 4.566 90.8452 4.08533 91.0972 3.628C91.3492 3.16133 91.7179 2.78333 92.2032 2.494C92.6979 2.19533 93.2906 2.046 93.9812 2.046C95.0359 2.046 95.8292 2.32133 96.3612 2.872C96.9026 3.41333 97.1732 4.104 97.1732 4.944C97.1732 5.532 97.0239 6.064 96.7252 6.54C96.4359 7.00667 95.9832 7.51067 95.3672 8.052L92.6792 10.782H97.0472C97.1499 10.782 97.2292 10.8147 97.2852 10.88C97.3506 10.936 97.3832 11.0107 97.3832 11.104V11.678C97.3832 11.7713 97.3506 11.8507 97.2852 11.916C97.2199 11.972 97.1406 12 97.0472 12H90.8732ZM102.52 12.14C101.316 12.14 100.434 11.79 99.874 11.09C99.314 10.39 99.0154 9.47067 98.978 8.332C98.9687 8.08 98.964 7.674 98.964 7.114C98.964 6.53533 98.9687 6.11533 98.978 5.854C99.006 4.734 99.3047 3.824 99.874 3.124C100.443 2.41467 101.325 2.06 102.52 2.06C103.724 2.06 104.611 2.41467 105.18 3.124C105.749 3.824 106.048 4.734 106.076 5.854C106.095 6.37667 106.104 6.79667 106.104 7.114C106.104 7.422 106.095 7.828 106.076 8.332C106.039 9.47067 105.74 10.39 105.18 11.09C104.62 11.79 103.733 12.14 102.52 12.14ZM102.52 10.936C103.22 10.936 103.747 10.7027 104.102 10.236C104.466 9.76933 104.657 9.11133 104.676 8.262C104.695 7.72067 104.704 7.32867 104.704 7.086C104.704 6.82467 104.695 6.442 104.676 5.938C104.657 5.098 104.471 4.44 104.116 3.964C103.761 3.488 103.229 3.25 102.52 3.25C101.82 3.25 101.288 3.488 100.924 3.964C100.569 4.44 100.383 5.098 100.364 5.938L100.35 7.086L100.364 8.262C100.383 9.11133 100.569 9.76933 100.924 10.236C101.288 10.7027 101.82 10.936 102.52 10.936ZM107.977 12C107.883 12 107.804 11.972 107.739 11.916C107.683 11.8507 107.655 11.7713 107.655 11.678V11.23C107.655 11.0153 107.771 10.81 108.005 10.614L110.973 7.646C111.691 7.04867 112.186 6.56333 112.457 6.19C112.727 5.80733 112.863 5.406 112.863 4.986C112.863 4.44467 112.709 4.02 112.401 3.712C112.102 3.404 111.663 3.25 111.085 3.25C110.543 3.25 110.109 3.41333 109.783 3.74C109.456 4.05733 109.255 4.482 109.181 5.014C109.162 5.126 109.115 5.21 109.041 5.266C108.975 5.31267 108.901 5.336 108.817 5.336H108.089C108.005 5.336 107.935 5.31267 107.879 5.266C107.823 5.21 107.795 5.14467 107.795 5.07C107.813 4.566 107.949 4.08533 108.201 3.628C108.453 3.16133 108.821 2.78333 109.307 2.494C109.801 2.19533 110.394 2.046 111.085 2.046C112.139 2.046 112.933 2.32133 113.465 2.872C114.006 3.41333 114.277 4.104 114.277 4.944C114.277 5.532 114.127 6.064 113.829 6.54C113.539 7.00667 113.087 7.51067 112.471 8.052L109.783 10.782H114.151C114.253 10.782 114.333 10.8147 114.389 10.88C114.454 10.936 114.487 11.0107 114.487 11.104V11.678C114.487 11.7713 114.454 11.8507 114.389 11.916C114.323 11.972 114.244 12 114.151 12H107.977ZM119.624 12.14C118.42 12.14 117.538 11.79 116.978 11.09C116.418 10.39 116.119 9.47067 116.082 8.332C116.072 8.08 116.068 7.674 116.068 7.114C116.068 6.53533 116.072 6.11533 116.082 5.854C116.11 4.734 116.408 3.824 116.978 3.124C117.547 2.41467 118.429 2.06 119.624 2.06C120.828 2.06 121.714 2.41467 122.284 3.124C122.853 3.824 123.152 4.734 123.18 5.854C123.198 6.37667 123.208 6.79667 123.208 7.114C123.208 7.422 123.198 7.828 123.18 8.332C123.142 9.47067 122.844 10.39 122.284 11.09C121.724 11.79 120.837 12.14 119.624 12.14ZM119.624 10.936C120.324 10.936 120.851 10.7027 121.206 10.236C121.57 9.76933 121.761 9.11133 121.78 8.262C121.798 7.72067 121.808 7.32867 121.808 7.086C121.808 6.82467 121.798 6.442 121.78 5.938C121.761 5.098 121.574 4.44 121.22 3.964C120.865 3.488 120.333 3.25 119.624 3.25C118.924 3.25 118.392 3.488 118.028 3.964C117.673 4.44 117.486 5.098 117.468 5.938L117.454 7.086L117.468 8.262C117.486 9.11133 117.673 9.76933 118.028 10.236C118.392 10.7027 118.924 10.936 119.624 10.936Z" fill="#6B6D97"/>
</svg>
